<?xml version="1.0" encoding="UTF-8" standalone="no"?>
<!DOCTYPE svg PUBLIC "-//W3C//DTD SVG 1.1//EN" "http://www.w3.org/Graphics/SVG/1.1/DTD/svg11.dtd">
<svg width="100%" height="100%" viewBox="0 0 594 824" version="1.1" xmlns="http://www.w3.org/2000/svg" xmlns:xlink="http://www.w3.org/1999/xlink" xml:space="preserve" xmlns:serif="http://www.serif.com/" style="fill-rule:evenodd;clip-rule:evenodd;stroke-linejoin:round;stroke-miterlimit:2;">
    <g transform="matrix(1,0,0,1,-203,-88)">
        <g id="_2" serif:id="2" transform="matrix(1,0,0,1,47.6402,19.4643)">
            <g transform="matrix(14.1399,0,0,14.1399,-466.737,-239.54)">
                <path d="M84,48L84,46L82,44L78,44L78,42L82.15,42C82.617,42 83.05,42.2 83.45,42.6L85.45,44.6C85.817,44.967 86,45.433 86,46L86,74C86,74.567 85.817,75.05 85.45,75.45L83.45,77.45C83.05,77.817 82.617,78 82.15,78L80,78L78,78L78,76L82,76L84,74L84,72L84,48M50,78L48,78C47.433,78 46.967,77.817 46.6,77.45L44.6,75.45C44.2,75.05 44,74.567 44,74L44,46C44,45.433 44.2,44.967 44.6,44.6L46.6,42.6C46.967,42.2 47.433,42 48,42L52,42L52,44L48,44L46,46L46,74L48,76L52,76L52,78L50,78" style="fill:rgb(46,43,34);fill-rule:nonzero;"/>
                <path d="M78,44L82,44L84,46L84,48L78,48L78,44M84,72L84,74L82,76L78,76L78,72L84,72M52,76L48,76L46,74L46,72L52,72L52,76M46,48L46,46L48,44L52,44L52,48L46,48" style="fill:rgb(70,65,51);fill-rule:nonzero;"/>
                <path d="M46,48L52,48L52,72L46,72L46,48M84,48L84,72L78,72L78,48L84,48" style="fill:rgb(64,60,47);fill-rule:nonzero;"/>
                <path d="M78,78L80,78C80,78.567 79.817,79.05 79.45,79.45C79.05,79.817 78.567,80 78,80L52,80C51.433,80 50.967,79.817 50.6,79.45C50.2,79.05 50,78.583 50,78.05L50,78L78,78M80,42L78,42L74,42L70,42L60,42L56,42L52,42L50,42C50,41.433 50.2,40.967 50.6,40.6C50.967,40.2 51.433,40 52,40L78,40C78.567,40 79.05,40.2 79.45,40.6C79.817,40.967 80,41.417 80,41.95L80,42" style="fill:rgb(26,123,68);fill-rule:nonzero;"/>
                <path d="M78,76L78,78L74,78L74,42L78,42L78,76M52,78L52,76L52,72L52,48L52,44L52,42L56,42L56,78L52,78M70,63C70,64.367 69.5,65.533 68.5,66.5C67.533,67.5 66.367,68 65,68C63.633,68 62.45,67.5 61.45,66.5C60.483,65.533 60,64.367 60,63C60,61.633 60.483,60.45 61.45,59.45C62.45,58.483 63.633,58 65,58C66.367,58 67.533,58.483 68.5,59.45C69.5,60.45 70,61.633 70,63" style="fill:rgb(39,175,96);fill-rule:nonzero;"/>
                <path d="M70,63C70,61.633 69.5,60.45 68.5,59.45C67.533,58.483 66.367,58 65,58C63.633,58 62.45,58.483 61.45,59.45C60.483,60.45 60,61.633 60,63C60,64.367 60.483,65.533 61.45,66.5C62.45,67.5 63.633,68 65,68C66.367,68 67.533,67.5 68.5,66.5C69.5,65.533 70,64.367 70,63M56,42L60,42L60,52L70,52L70,42L74,42L74,78L70,78L70,74L60,74L60,78L56,78L56,42" style="fill:rgb(46,204,113);fill-rule:nonzero;"/>
                <path d="M60,42L70,42L70,52L60,52L60,42M60,78L60,74L70,74L70,78L60,78" style="fill:rgb(35,161,88);fill-rule:nonzero;"/>
            </g>
            <g transform="matrix(14.1399,0,0,14.1399,-1439.16,-496.183)">
                <path d="M132,58L132,42L136,42L136,58L132,58" style="fill:rgb(35,161,88);fill-rule:nonzero;"/>
            </g>
            <g transform="matrix(14.1399,0,0,14.1399,-1439.16,-496.183)">
                <path d="M132,58L130,60L130,68L138,68L138,60L136,58L136,42L132,42L132,58M132,40L136,40C136.567,40 137.05,40.2 137.45,40.6C137.817,40.967 138,41.433 138,42L138,57.15L139.45,58.6C139.817,58.967 140,59.433 140,60L140,68C140,68.567 139.817,69.05 139.45,69.45C139.05,69.817 138.567,70 138,70L130,70C129.433,70 128.967,69.817 128.6,69.45C128.2,69.05 128,68.567 128,68L128,60C128,59.433 128.2,58.967 128.6,58.6L130,57.15L130,42C130,41.433 130.2,40.967 130.6,40.6C130.967,40.2 131.433,40 132,40" style="fill:rgb(26,123,68);fill-rule:nonzero;"/>
            </g>
            <g transform="matrix(14.1399,0,0,14.1399,-1439.16,-496.183)">
                <path d="M132,58L136,58L138,60L138,68L130,68L130,60L132,58" style="fill:rgb(39,175,96);fill-rule:nonzero;"/>
            </g>
        </g>
    </g>
</svg>
